<svg xmlns="http://www.w3.org/2000/svg" xmlns:xlink="http://www.w3.org/1999/xlink" width="317.02" height="174.036" viewBox="0 0 317.02 174.036"><defs><path id="a" d="M0 0h317.02v174.036H0z"/></defs><clipPath id="b"><use xlink:href="#a" overflow="visible"/></clipPath><g clip-path="url(#b)"><defs><path id="c" d="M0 0h317.02v174.036H0z"/></defs><clipPath id="d"><use xlink:href="#c" overflow="visible"/></clipPath><g opacity=".9" clip-path="url(#d)"><defs><path id="e" d="M-17-15h351.02v190.036H-17z"/></defs><clipPath id="f"><use xlink:href="#e" overflow="visible"/></clipPath><path clip-path="url(#f)" fill="#2F1E08" d="M279.2 21.338c0 7.52-6.11 13.622-13.624 13.622s-13.623-6.102-13.623-13.622 6.11-13.615 13.623-13.615c7.513 0 13.623 6.094 13.623 13.615"/><path clip-path="url(#f)" fill="none" stroke="#2F1E08" stroke-width="24.763" stroke-linecap="round" stroke-linejoin="round" d="M12.382 85.41l129.104 76.092M304.64 87.02c0 41.223-33.42 74.635-74.646 74.635-41.224 0-74.627-33.412-74.627-74.636 0-41.23 33.404-74.638 74.627-74.638m-217.532.21H108c20.007 0 36.225 16.223 36.225 36.238S128.008 85.067 108 85.067H12.43"/><path clip-path="url(#f)" fill="#2F1E08" d="M308.347 50.055c0 7.52-6.11 13.615-13.623 13.615-7.528 0-13.622-6.094-13.622-13.615 0-7.52 6.094-13.623 13.622-13.623 7.512 0 13.623 6.102 13.623 13.623"/></g></g></svg>